<?xml version="1.0" encoding="utf-8"?>
<!-- Generator: Adobe Illustrator 17.0.0, SVG Export Plug-In . SVG Version: 6.00 Build 0)  -->
<!DOCTYPE svg PUBLIC "-//W3C//DTD SVG 1.1//EN" "http://www.w3.org/Graphics/SVG/1.1/DTD/svg11.dtd">
<svg version="1.1" id="Capa_1" xmlns="http://www.w3.org/2000/svg" xmlns:xlink="http://www.w3.org/1999/xlink" x="0px" y="0px"
	 width="595.28px" height="841.89px" viewBox="0 0 595.28 841.89" enable-background="new 0 0 595.28 841.89" xml:space="preserve">
<g>
	<g>
		<g>
			<path fill="#263f67" d="M396.853,321.732c0-54.705-44.496-99.213-99.213-99.213s-99.213,44.508-99.213,99.213
				c0,54.705,44.496,99.213,99.213,99.213S396.853,376.437,396.853,321.732z M223.23,321.732c0-41.032,33.378-74.41,74.41-74.41
				s74.41,33.378,74.41,74.41s-33.378,74.41-74.41,74.41S223.23,362.763,223.23,321.732z"/>
			<path fill="#263f67" d="M390.848,549.939c50.695-62.582,105.219-148.31,105.219-228.207
				c0-109.411-89.016-198.427-198.427-198.427S99.213,212.321,99.213,321.732c0,79.898,54.524,165.625,105.219,228.207
				c-90.76,9.794-179.629,35.541-179.629,81.834c0,56.995,137.267,86.812,272.837,86.812s272.837-29.818,272.837-86.812
				C570.477,585.481,481.607,559.734,390.848,549.939z M124.017,321.732c0-95.738,77.898-173.623,173.623-173.623
				s173.623,77.886,173.623,173.623c0,118.204-137.969,258.691-173.623,293.001C261.985,580.423,124.017,439.935,124.017,321.732z
				 M297.64,693.782c-151.412,0-248.033-36.72-248.033-62.008c0-17.957,55.485-48.603,174.122-58.765
				c34.083,39.22,62.639,65.292,65.604,67.97c2.374,2.131,5.328,3.197,8.308,3.197c2.98,0,5.934-1.066,8.308-3.197
				c2.964-2.678,31.521-28.75,65.604-67.97c118.636,10.163,174.122,40.808,174.122,58.765
				C545.673,657.061,449.052,693.782,297.64,693.782z"/>
		</g>
	</g>
</g>
</svg>
